<svg width="26" height="26" viewBox="0 0 26 26" fill="none" xmlns="http://www.w3.org/2000/svg">
<path d="M25.1505 7.98707H18.0129V0.849471C18.0129 0.380337 17.6326 0 17.1635 0H0.849471C0.380337 0 0 0.380337 0 0.849471V17.1634C0 17.6325 0.380337 18.0129 0.849471 18.0129H7.98707V25.1505C7.98707 25.6197 8.36741 26 8.83654 26H25.1505C25.6197 26 26 25.6197 26 25.1505V8.83654C26 8.36741 25.6197 7.98707 25.1505 7.98707ZM16.3522 15.4946C16.3522 15.9638 15.9719 16.3441 15.5027 16.3441H10.4911C10.0192 16.3441 9.64161 15.9592 9.64161 15.4946V10.483C9.64161 10.0116 10.0282 9.63352 10.4911 9.63352H15.5027C15.9646 9.63352 16.3522 10.0093 16.3522 10.483V15.4946Z" fill="white"/>
</svg>
