<svg width="22" height="26" viewBox="0 0 22 26" fill="none" xmlns="http://www.w3.org/2000/svg">
<path d="M12.6896 4.21325V2.19426H13.6111C14.217 2.19426 14.7083 1.70301 14.7083 1.09713C14.7083 0.491252 14.2171 0 13.6111 0H8.3888C7.78292 0 7.29167 0.491252 7.29167 1.09713C7.29167 1.70301 7.78292 2.19426 8.3888 2.19426H9.31039V4.21325C4.06715 5.02811 0.0413818 9.57339 0.0413818 15.0415C0.0413818 21.0841 4.95741 26 11 26C17.0425 26 21.9585 21.0841 21.9585 15.0415C21.9586 9.57348 17.9328 5.0282 12.6896 4.21325ZM19.7287 14.2474C19.747 14.451 19.6789 14.6529 19.5411 14.8038C19.4033 14.9548 19.2083 15.0415 19.0039 15.0415H11.7279C11.3259 15.0415 11.0001 14.7157 11.0001 14.3137V7.0377C11.0001 6.8332 11.0862 6.63808 11.2372 6.5002C11.3883 6.36231 11.5904 6.29455 11.7941 6.3129C15.9944 6.6918 19.3497 10.0471 19.7287 14.2474Z" fill="white"/>
</svg>
