<svg width="26" height="26" viewBox="0 0 26 26" fill="none" xmlns="http://www.w3.org/2000/svg">
<g clip-path="url(#clip0_31_158)">
<path d="M16.6562 12.1848C18.6755 12.1848 20.3125 10.5479 20.3125 8.52856C20.3125 6.50927 18.6755 4.87231 16.6562 4.87231C14.637 4.87231 13 6.50927 13 8.52856C13 10.5479 14.637 12.1848 16.6562 12.1848Z" fill="white"/>
<path d="M24.2938 13.4036C24.1313 13.1598 23.8875 12.9973 23.5625 12.9973C21.775 12.9973 20.0688 13.8098 19.0125 15.2723L18.2813 16.2473C17.3875 17.3036 16.0063 17.8723 14.625 17.8723H12.1875C11.7 17.8723 11.375 17.5473 11.375 17.0598C11.375 16.5723 11.7 16.2473 12.1875 16.2473H13.7313C15.0313 16.2473 16.25 15.1911 16.25 13.8911V13.8098C16.25 13.4036 15.8438 12.9973 15.4375 12.9973H10.4813C7.55626 12.9973 5.20001 14.2973 3.90001 16.4098L1.70626 19.8223C1.54376 20.0661 1.54376 20.3911 1.70626 20.6348L4.14376 24.6973C4.22501 24.8598 4.46876 25.0223 4.63126 25.1036C4.71251 25.1036 4.71251 25.1036 4.79376 25.1036C4.95626 25.1036 5.11876 25.0223 5.28126 24.9411C8.36876 22.9098 11.9438 21.8536 15.6 21.8536C18.2813 21.8536 20.7188 20.3911 22.0188 18.0348L24.2125 14.1348C24.375 13.9723 24.375 13.6473 24.2938 13.4036Z" fill="white"/>
<path d="M11.375 8.52856C11.375 6.49731 12.5938 4.70981 14.3 3.81606C13.7313 2.51606 12.4313 1.62231 10.9688 1.62231C8.9375 1.62231 7.3125 3.24731 7.3125 5.27856C7.3125 7.30981 8.9375 8.93481 10.9688 8.93481C11.1312 8.93481 11.2125 8.93481 11.375 8.85356C11.375 8.77231 11.375 8.69106 11.375 8.52856Z" fill="white"/>
</g>
<defs>
<clipPath id="clip0_31_158">
<rect width="26" height="26" fill="white" transform="translate(0 -0.00268555)"/>
</clipPath>
</defs>
</svg>
