<svg width="26" height="22" viewBox="0 0 26 22" fill="none" xmlns="http://www.w3.org/2000/svg">
<path d="M25.7403 5.18145L20.9539 0.392813C20.7877 0.226395 20.5618 0.132812 20.3265 0.132812C20.0912 0.132812 19.8653 0.226308 19.699 0.392813L9.94794 10.1479L6.30085 6.49957C6.13443 6.33324 5.90875 6.23966 5.67326 6.23966C5.43795 6.23966 5.21218 6.33324 5.04585 6.49966L0.259661 11.2885C-0.0865682 11.635 -0.0865682 12.1965 0.259748 12.5429L9.32044 21.6074C9.48677 21.7739 9.71245 21.8674 9.94794 21.8674C10.1833 21.8674 10.409 21.774 10.5754 21.6074L25.7403 6.43576C26.0866 6.08944 26.0866 5.52786 25.7403 5.18145Z" fill="white"/>
</svg>
