<svg width="26" height="26" viewBox="0 0 26 26" fill="none" xmlns="http://www.w3.org/2000/svg">
<path d="M25.4599 11.6514L20.2363 15.9175C19.9225 16.1729 19.7842 16.5878 19.8799 16.9814L21.4597 23.4337C21.6938 24.4816 20.8959 25.3487 20.0023 25.3487C19.7363 25.3487 19.4544 25.2689 19.1937 25.0987L13.4808 21.5879C13.1403 21.3805 12.7148 21.3805 12.3743 21.5932L6.73054 25.104C6.46989 25.2795 6.18797 25.354 5.91668 25.354C5.00176 25.354 4.17726 24.487 4.46451 23.4391L6.04435 16.9814C6.14009 16.5878 6.00179 16.1782 5.69327 15.9228L0.538846 11.6621C-0.519699 10.7578 0.0867038 9.01837 1.44313 8.9439L8.11888 8.45984C8.51783 8.43324 8.86359 8.17791 9.01253 7.81088L11.5658 1.60855C11.8318 0.964911 12.4169 0.645752 13.002 0.645752C13.5871 0.645752 14.1723 0.964911 14.4382 1.60855L16.9862 7.80556C17.1351 8.1726 17.4862 8.4226 17.8798 8.45452L24.5556 8.93858C25.9173 9.01305 26.5184 10.7471 25.4599 11.6514Z" fill="white"/>
</svg>
